<?xml version="1.0" encoding="UTF-8" standalone="no"?>
<!-- Generator: Adobe Illustrator 12.0.0, SVG Export Plug-In . SVG Version: 6.00 Build 51448)  -->
<svg xmlns:dc="http://purl.org/dc/elements/1.1/" xmlns:cc="http://web.resource.org/cc/" xmlns:rdf="http://www.w3.org/1999/02/22-rdf-syntax-ns#" xmlns:svg="http://www.w3.org/2000/svg" xmlns="http://www.w3.org/2000/svg" xmlns:sodipodi="http://sodipodi.sourceforge.net/DTD/sodipodi-0.dtd" xmlns:inkscape="http://www.inkscape.org/namespaces/inkscape" version="1.1" id="Layer_1" width="192.756" height="192.756" viewBox="0 0 192.756 192.756" overflow="visible" enable-background="new 0 0 192.756 192.756" xml:space="preserve" sodipodi:version="0.32" inkscape:version="0.45.1" sodipodi:docname="RATP[1].svg" inkscape:output_extension="org.inkscape.output.svg.inkscape" sodipodi:docbase="C:\Users\Virgile"><metadata id="metadata2283"><rdf:RDF><cc:Work rdf:about=""><dc:format>image/svg+xml</dc:format><dc:type rdf:resource="http://purl.org/dc/dcmitype/StillImage"/></cc:Work></rdf:RDF></metadata><defs id="defs2281">
	
	
	
	
	
	
	
	
	
	
</defs><sodipodi:namedview inkscape:window-height="748" inkscape:window-width="1024" inkscape:pageshadow="2" inkscape:pageopacity="0.0" guidetolerance="10.0" gridtolerance="10.0" objecttolerance="10.0" borderopacity="1.0" bordercolor="#666666" pagecolor="#ffffff" id="base" inkscape:zoom="1.9558406" inkscape:cx="96.377998" inkscape:cy="96.377998" inkscape:window-x="1392" inkscape:window-y="-8" inkscape:current-layer="Layer_1"/>
<polygon style="fill:#4caa83;fill-rule:evenodd;fill-opacity:1" id="polygon2262" points="106.618,29.632 96.758,11.05 80.451,29.632 83.104,29.632 86.897,25.46 98.274,25.46 100.55,29.632 106.618,29.632 " clip-rule="evenodd"/><path style="fill:#4caa83;fill-rule:evenodd;fill-opacity:1" id="path2264" d="M 67.556,20.531 L 62.247,20.531 L 62.247,20.531 L 69.831,29.633 L 77.037,29.633 L 69.831,21.669 C 79.691,21.669 79.311,15.981 79.311,15.981 C 79.311,11.431 71.727,11.431 71.727,11.431 L 58.076,11.431 L 54.663,29.634 L 60.73,29.634 L 63.385,12.947 L 69.073,12.947 C 69.073,12.947 72.865,12.947 72.865,16.361 C 72.866,16.359 72.866,20.531 67.556,20.531 L 67.556,20.531 z " clip-rule="evenodd"/><polygon style="fill:#4caa83;fill-rule:evenodd;fill-opacity:1" id="polygon2266" points="122.545,13.325 132.405,13.325 132.405,11.43 106.997,11.43 106.997,13.325 116.478,13.325 113.444,29.632 119.512,29.632 122.545,13.325 " clip-rule="evenodd"/><path style="fill:#4caa83;fill-rule:evenodd;fill-opacity:1" id="path2268" d="M 139.611,29.632 L 140.749,22.048 L 140.749,22.048 L 148.712,22.048 C 158.952,22.048 158.193,15.98 158.193,15.98 C 158.193,11.43 150.608,11.43 150.608,11.43 L 136.957,11.43 L 133.923,29.633 L 139.611,29.633 L 139.611,29.632 z " clip-rule="evenodd"/><path style="fill:#4caa83;fill-rule:evenodd;fill-opacity:1" id="path2270" d="M 72.107,69.832 C 80.071,61.489 91.448,55.421 103.963,55.421 C 128.234,55.421 147.575,74.762 147.575,99.033 C 147.575,114.961 138.852,131.268 125.958,138.853 C 124.062,144.92 122.545,149.471 122.166,157.435 C 147.575,149.85 165.778,126.717 165.778,99.033 C 165.778,64.902 138.473,38.356 103.963,38.356 C 84.622,38.356 67.556,47.078 56.179,61.11 C 56.179,61.109 65.281,63.764 72.107,69.832 L 72.107,69.832 L 72.107,69.832 z " clip-rule="evenodd"/><path style="fill:#4caa83;fill-rule:evenodd;fill-opacity:1" id="path2272" d="M 61.868,87.276 C 60.73,91.448 60.351,94.482 60.351,99.032 C 60.351,124.062 80.071,143.023 104.343,143.023 C 102.824,148.711 102.067,152.883 101.688,159.331 C 97.137,159.331 92.586,158.952 88.036,157.813 C 61.489,151.367 41.769,127.854 42.148,99.032 C 42.148,91.826 42.906,85.38 45.561,78.932 C 45.561,78.933 55.042,79.691 61.868,87.276 L 61.868,87.276 z " clip-rule="evenodd"/><path style="fill:#040480;fill-rule:evenodd;fill-opacity:1" id="path2274" d="M 105.479,85.38 C 105.479,85.38 106.238,89.551 106.618,92.586 C 106.618,92.586 106.618,93.344 107.755,93.724 L 111.168,94.862 C 111.168,94.862 113.823,95.621 113.444,98.275 L 113.064,102.447 C 113.064,102.447 114.202,100.172 116.477,100.551 C 116.477,100.551 119.131,100.931 119.131,103.585 C 119.131,103.585 119.131,106.619 119.89,107.378 C 119.89,107.378 120.649,108.895 125.2,109.274 C 127.096,109.654 128.613,110.791 128.613,110.791 C 132.026,113.446 129.751,117.617 129.751,117.617 C 129.751,117.617 123.304,131.649 120.27,144.923 C 120.27,144.923 114.582,166.16 119.891,181.708 L 112.306,181.708 C 103.584,155.542 120.65,119.894 120.65,119.894 C 120.65,119.894 122.925,116.481 120.27,115.722 C 119.132,115.722 119.132,115.722 117.995,115.342 C 117.995,115.342 113.824,115.342 114.582,110.033 C 115.341,106.241 112.307,108.137 112.307,108.137 C 108.894,110.033 108.515,106.999 108.515,106.999 C 108.515,105.861 108.136,103.586 108.136,103.586 C 108.136,102.069 106.998,102.069 106.998,102.069 L 103.205,100.931 C 100.551,100.551 100.551,97.897 100.551,97.897 L 99.792,91.071 C 99.792,88.037 96.759,89.175 96.759,89.175 C 95.241,89.554 89.553,90.313 89.553,90.313 C 89.553,90.313 86.519,91.071 81.589,89.934 C 77.797,89.175 73.246,86.52 67.557,81.97 C 62.248,77.04 55.421,74.764 55.421,74.764 C 41.389,69.834 26.979,75.902 26.979,75.902 L 26.979,67.938 C 26.979,67.938 39.114,61.491 56.18,66.421 C 56.18,66.421 64.523,68.696 74.005,76.66 C 74.005,76.66 77.038,79.315 80.831,81.211 C 80.831,81.211 84.244,83.487 89.933,82.728 C 96.759,81.591 100.551,81.591 100.551,81.591 C 100.551,81.591 105.479,80.829 105.479,85.38 L 105.479,85.38 z " clip-rule="evenodd"/><polygon style="fill:#ffffff;fill-rule:evenodd" id="polygon2276" points="97.136,23.564 93.724,17.497 88.414,23.564 97.136,23.564 " clip-rule="evenodd"/><path style="fill:#ffffff;fill-rule:evenodd" id="path2278" d="M 142.645,12.946 L 141.128,20.531 L 146.438,20.531 C 152.126,20.531 151.747,16.36 151.747,16.36 C 151.747,12.946 148.334,12.946 148.334,12.946 L 142.645,12.946 L 142.645,12.946 z " clip-rule="evenodd"/>
</svg>